<svg xmlns="http://www.w3.org/2000/svg" viewBox="0 0 836.95 836.95"><defs><style>.cls-1{stroke:#231f20;stroke-miterlimit:10;}</style></defs><g id="Layer_2" data-name="Layer 2"><g id="Layer_1-2" data-name="Layer 1"><path class="cls-1" d="M664.08,699.38c-36.48-44.94-55-110.2-55-194l0-8-.25-144.32L467.4,626.49l-39.29-76.36,173.7-341.52c11.68-23,34.24-37.22,58.9-37.22h26.55l.41,330.93h-.22c0,60.7,11.14,106.7,33,136.74a102.73,102.73,0,0,0,33,29.45,416.14,416.14,0,0,0,83-250h0c0-230.84-187.13-418-418-418h0C187.63.5.5,187.63.5,418.47h0c0,124.73,54.64,236.7,141.29,313.28V171.39H168.6c24.49,0,47,14.12,58.71,36.86L376.21,497l78.88,153.29-21.22,41H395.21L220.28,355.52v406.3h0v24.72a416.09,416.09,0,0,0,198.23,49.91h0a416.39,416.39,0,0,0,278-105.84A181,181,0,0,1,664.08,699.38Z"/></g></g></svg>