<svg xmlns="http://www.w3.org/2000/svg" viewBox="0 0 1271.82 361.77"><g id="Layer_2" data-name="Layer 2"><g id="Layer_1-2" data-name="Layer 1"><path d="M140.48,199.1l-89.23-173C44.22,12.44,30.74,4,16.06,4H0V357.79H47V114.32L151.86,315.55H175L187.74,291Z"/><path d="M1249.87,88.23c-14.57-27.34-35-49.12-60.85-64.73S1134,0,1102.19,0c-32.13,0-61.49,7.91-87.28,23.5-25,15.12-45.07,36.11-59.68,62.42A154,154,0,0,0,896.65,25.6c-25.5-14.75-55.08-22.23-87.91-22.23l-122.24,0v252.9L534,21.77a39.49,39.49,0,0,0-33-18.36H484.8V204.83c-.32,35.58-7.2,62.4-20.44,79.72C450.91,302.12,431.18,311,405.71,311c-26.14,0-46-9-58.93-26.81-13.11-18-19.77-45.57-19.79-81.94h.13L326.88,4H311c-14.77,0-28.29,8.54-35.29,22.3L171.58,230.94l23.54,45.76,84.74-163.84.15,86.49,0,4.79c0,50.2,11.08,89.31,32.94,116.24s53,40.79,92.31,40.79,70.34-13.64,92.31-40.53c20.39-25,31.41-60.8,32.78-106.52h.18V104.32l164.5,252.9h34.41l2.79,0h0V308.05h0V52.51H806.1c24.32,0,46,5.4,64.36,16a109,109,0,0,1,42.63,44.81c10,19.19,15,41.7,15,66.92s-5.06,47.74-15,66.92A109,109,0,0,1,870.46,292c-18.39,10.64-40,16-64.36,16H745.2v49.14h63.54c32.85,0,62.43-7.48,87.91-22.23a153.82,153.82,0,0,0,58.24-59.72c14.64,26.6,34.83,47.8,60,63,25.78,15.59,55.15,23.5,87.28,23.5,31.82,0,61-7.91,86.83-23.5s46.28-37.39,60.85-64.73,22-58.5,22-92.66S1264.43,115.56,1249.87,88.23ZM1205.65,247.8c-10.35,19.82-24.69,35.59-42.61,46.85s-38.37,17-60.85,17-43.12-5.72-61.33-17-32.69-27-43-46.84-15.62-42.35-15.62-66.92,5.26-47.08,15.62-66.91a118.76,118.76,0,0,1,43-46.85c18.22-11.27,38.85-17,61.33-17s42.94,5.72,60.85,17,32.26,27.05,42.61,46.86,15.62,42.36,15.62,66.91S1216,228,1205.65,247.8Z"/></g></g></svg>